<svg xmlns="http://www.w3.org/2000/svg" version="1.1" xmlns:xlink="http://www.w3.org/1999/xlink" xmlns:svgjs="http://svgjs.com/svgjs" width="180" height="180"><svg width="180" height="180" viewBox="0 0 180 180" fill="none" xmlns="http://www.w3.org/2000/svg">
<path d="M164.335 66.3069C159.958 52.3832 151.614 39.7791 140.397 30.4511C134.698 25.9919 127.311 24.1718 120.244 23.8533C118.921 23.8533 117.462 23.8533 116.186 23.8533C96.8526 24.8089 78.7507 33.9093 63.4758 45.3303C63.339 45.4213 63.339 45.6034 63.4758 45.7399C69.7682 52.6562 75.6957 59.9365 81.4408 67.3534C81.532 67.4899 81.7144 67.4899 81.8056 67.3989C94.1167 58.5715 106.975 50.4266 120.791 44.0563C120.928 44.0108 121.064 44.0563 121.156 44.1928C125.533 52.7017 110.942 66.4889 104.969 71.4486C91.6089 82.3691 76.2885 93.0166 58.597 94.4272C55.3597 94.7002 52.0767 94.2907 48.9761 93.5171C40.8143 91.424 34.3852 84.5077 31.7862 76.6358C30.5095 72.5861 30.5095 68.2179 31.2846 64.0772C32.7437 56.5694 36.5282 49.3345 41.7718 42.9642C53.6725 27.266 74.9662 16.8005 99.3148 16.8005C123.663 16.8005 118.055 18.4386 126.308 21.3507C126.399 21.1232 126.399 21.2142 126.536 20.8502C116.277 15.4809 104.695 12.4778 93.1593 12.0227C90.6514 12.0227 88.098 11.9317 85.6814 12.1138C44.3708 14.2524 10.6294 49.6986 12.0429 91.1965V91.2875V91.3785C12.0429 91.7881 12.0429 92.1976 12.0885 92.6071C12.0885 92.8801 12.0885 93.1986 12.0885 93.4261C12.0885 94.0632 12.1797 94.7457 12.2253 95.3827C12.2253 95.5192 12.2252 95.7012 12.2708 95.8377C12.2708 95.9743 12.2708 96.1563 12.362 96.2928C12.362 96.2928 12.362 96.3383 12.362 96.3838C13.5475 117.178 24.8099 135.061 46.5139 138.291C51.6663 138.974 56.8643 138.928 62.0168 138.655C89.6939 136.653 118.648 122.047 136.157 100.524C143.999 90.605 149.79 78.5469 150.52 65.8063C150.611 64.9418 150.565 64.0772 150.611 63.2582C150.611 63.2582 150.611 63.2127 150.611 63.1672C150.611 63.0762 150.702 63.1672 150.748 63.1672C150.884 63.3037 151.067 63.4402 151.204 63.5767C160.049 73.3142 165.521 85.7818 166.798 98.8409C167.163 98.8409 167.071 98.8409 167.436 98.8409C168.758 87.8749 167.755 76.6358 164.427 66.0793L164.335 66.3069Z" fill="black"></path>
<path d="M83.9847 157.67C64.1045 157.67 45.7291 151.527 30.7734 141.062C45.0908 157.579 66.2476 167.999 89.8211 167.999C126.572 167.999 157.395 142.609 165.694 108.482C150.829 137.604 119.824 157.67 83.9847 157.67Z" fill="black"></path>
</svg><style>@media (prefers-color-scheme: light) { :root { filter: none; } }
@media (prefers-color-scheme: dark) { :root { filter: invert(100%); } }
</style></svg>